<?xml version="1.0" encoding="UTF-8"?>
<svg width="582px" height="65px" viewBox="0 0 582 65" version="1.1" xmlns="http://www.w3.org/2000/svg" xmlns:xlink="http://www.w3.org/1999/xlink">
    <!-- Generator: Sketch 52.6 (67491) - http://www.bohemiancoding.com/sketch -->
    <title>OAK'S LAB - full (black)</title>
    <desc>Created with Sketch.</desc>
    <g id="Design-Styleguide" stroke="none" stroke-width="1" fill="none" fill-rule="evenodd">
        <g id="01---about-us-" transform="translate(-669.000000, -508.000000)" fill="#000000" fill-rule="nonzero">
            <g id="OAK'S-LAB---full-(black)" transform="translate(669.000000, 508.000000)">
                <path d="M32,64 C14.326888,64 0,49.673112 0,32 C0,14.326888 14.326888,-1.42108547e-14 32,-1.42108547e-14 C49.673112,-1.42108547e-14 64,14.326888 64,32 C64,49.673112 49.673112,64 32,64 Z M104,64 C86.326888,64 72,49.673112 72,32 C72,14.326888 86.326888,-1.42108547e-14 104,-1.42108547e-14 C121.673112,-1.42108547e-14 136,14.326888 136,32 C136,49.673112 121.673112,64 104,64 Z M176,54 C188.150264,54 198,44.1502645 198,32 C198,19.8497355 188.150264,10 176,10 C163.849736,10 154,19.8497355 154,32 C154,44.1502645 163.849736,54 176,54 Z M176,64 C158.326888,64 144,49.673112 144,32 C144,14.326888 158.326888,0 176,0 C193.673112,0 208,14.326888 208,32 C208,49.673112 193.673112,64 176,64 Z M212.16,63 L234.952,1.4 L246.48,1.4 L269.36,63 L259.328,63 L254.488,49.624 L226.768,49.624 L221.928,63 L212.16,63 Z M229.76,41.088 L251.496,41.088 L240.936,12.048 L240.32,12.048 L229.76,41.088 Z M324.888,63 L313.536,63 L295.936,34.312 L288.192,43.376 L288.192,63 L278.688,63 L278.688,1.4 L288.192,1.4 L288.192,29.824 L288.72,29.824 L312.304,1.4 L324.008,1.4 L302.272,26.832 L324.888,63 Z M333.864,19.968 L333.16,1.4 L341.432,1.4 L340.728,19.968 L333.864,19.968 Z M374.08,64.144 C360.88,64.144 351.376,55.96 351.376,44.08 L360.616,44.08 C360.704,50.416 365.896,55.432 374.432,55.432 C381.736,55.432 386.664,52.088 386.664,46.544 C386.664,29.912 353.312,42.232 353.312,17.416 C353.312,8.088 360.88,0.256 373.904,0.256 C384.376,0.256 394.848,5.888 395.024,18.736 L385.432,18.736 C385.432,12.664 381.296,8.792 373.816,8.792 C366.248,8.792 362.728,12.84 362.728,17.24 C362.728,32.112 396.432,20.936 396.432,45.84 C396.432,56.136 388.248,64.144 374.08,64.144 Z M432.072,63 L432.072,1.4 L441.576,1.4 L441.576,54.552 L467.272,54.552 L467.272,63 L432.072,63 Z M472.816,63 L495.608,1.4 L507.136,1.4 L530.016,63 L519.984,63 L515.144,49.624 L487.424,49.624 L482.584,63 L472.816,63 Z M490.416,41.088 L512.152,41.088 L501.592,12.048 L500.976,12.048 L490.416,41.088 Z M539.344,63 L539.344,1.4 L560.728,1.4 C572.608,1.4 579.472,8.264 579.472,17.328 C579.472,23.224 576.656,27.8 571.992,30.352 L571.992,30.88 C576.04,32.464 581.584,36.864 581.584,45.312 C581.584,56.488 572.784,63 562.488,63 L539.344,63 Z M548.584,27.36 L559.936,27.36 C566.008,27.36 570.056,23.664 570.056,18.208 C570.056,12.928 565.92,9.496 560.112,9.496 L548.584,9.496 L548.584,27.36 Z M548.584,54.904 L560.464,54.904 C566.888,54.904 571.728,51.736 571.728,44.696 C571.728,37.656 566.096,34.752 559.848,34.752 L548.584,34.752 L548.584,54.904 Z" id="Logo"></path>
            </g>
        </g>
    </g>
</svg>